<svg xmlns="http://www.w3.org/2000/svg" viewBox="0 0 142.91 28.78"><defs><style>.cls-1{fill:#ed1c24;}.cls-2{fill:#fff;}</style></defs><title>BLACK back</title><g id="Warstwa_2" data-name="Warstwa 2"><g id="Warstwa_1-2" data-name="Warstwa 1"><path class="cls-1" d="M10.76,7.66a5.57,5.57,0,0,0-5-2.85,5.76,5.76,0,0,0-2.95.76A5.92,5.92,0,0,0,.76,7.66a5.81,5.81,0,0,0-.76,3,6.11,6.11,0,0,0,.7,3,5.53,5.53,0,0,0,1.92,2.09,5.21,5.21,0,0,0,2.75.76,5.19,5.19,0,0,0,2.73-.76A5.66,5.66,0,0,0,9.41,14.5v.79a1.11,1.11,0,0,0,.29.78,1.06,1.06,0,0,0,.77.3,1,1,0,0,0,.76-.3,1,1,0,0,0,.31-.78V10.63A5.73,5.73,0,0,0,10.76,7.66ZM9,12.63A3.75,3.75,0,0,1,7.68,14a3.58,3.58,0,0,1-1.9.51,3.61,3.61,0,0,1-3.23-1.92,4.07,4.07,0,0,1-.5-2,4.15,4.15,0,0,1,.5-2A3.64,3.64,0,0,1,5.78,6.7a3.58,3.58,0,0,1,1.9.51A3.77,3.77,0,0,1,9,8.6a4.37,4.37,0,0,1,.48,2A4.28,4.28,0,0,1,9,12.63Z"/><path class="cls-1" d="M25.22,5.94v9.34a1.09,1.09,0,0,1-.28.76,1.08,1.08,0,0,1-.78.31A1,1,0,0,1,23.4,16a1,1,0,0,1-.32-.76v-.22a3.69,3.69,0,0,1-1,.78,5,5,0,0,1-2.5.61,5.48,5.48,0,0,1-2.6-.61A4.42,4.42,0,0,1,15.15,14a5.88,5.88,0,0,1-.66-2.93V5.94a1,1,0,0,1,1.06-1.06,1,1,0,0,1,.76.3,1,1,0,0,1,.32.76v5.15A3.9,3.9,0,0,0,17.06,13a2.78,2.78,0,0,0,1.19,1.14,4.07,4.07,0,0,0,1.7.36,3.51,3.51,0,0,0,1.59-.36,2.88,2.88,0,0,0,1.13-1,2.32,2.32,0,0,0,.41-1.36V5.94a.93.93,0,0,1,.32-.76,1,1,0,0,1,.76-.3,1.07,1.07,0,0,1,.78.3A1,1,0,0,1,25.22,5.94Z"/><path class="cls-1" d="M34.77,15.29a1,1,0,0,1-.34.77,1.32,1.32,0,0,1-.9.29h-.38a3.35,3.35,0,0,1-1.87-.54A3.6,3.6,0,0,1,30,14.37a4.5,4.5,0,0,1-.48-2.09V7.11h-1a1.06,1.06,0,0,1-.72-.24.84.84,0,0,1-.28-.63.88.88,0,0,1,.28-.67,1,1,0,0,1,.72-.26h1v-3a1,1,0,0,1,1-1,1,1,0,0,1,.76.3,1.09,1.09,0,0,1,.28.75v3h1.79a1,1,0,0,1,.71.26.87.87,0,0,1,.27.67.83.83,0,0,1-.27.63,1.05,1.05,0,0,1-.71.24H31.56v5.17A2.22,2.22,0,0,0,32,13.69a1.37,1.37,0,0,0,1.12.56h.71a.82.82,0,0,1,.65.3A1.06,1.06,0,0,1,34.77,15.29Z"/><path class="cls-1" d="M42.58,16.43a6,6,0,0,1-3-.74,5.5,5.5,0,0,1-2-2,6.08,6.08,0,0,1-.74-3,6.06,6.06,0,0,1,.74-3,5.43,5.43,0,0,1,2-2.05,5.91,5.91,0,0,1,3-.75,5.85,5.85,0,0,1,3,.75,5.36,5.36,0,0,1,2,2.05,6,6,0,0,1,.74,3,6.07,6.07,0,0,1-.73,3,5.33,5.33,0,0,1-2,2A6,6,0,0,1,42.58,16.43Zm0-1.88A3.63,3.63,0,0,0,44.5,14a3.42,3.42,0,0,0,1.31-1.38,4.25,4.25,0,0,0,.47-2,4.38,4.38,0,0,0-.47-2A3.51,3.51,0,0,0,44.5,7.2a4,4,0,0,0-3.85,0,3.6,3.6,0,0,0-1.32,1.39,4.27,4.27,0,0,0-.48,2,4.14,4.14,0,0,0,.48,2A3.51,3.51,0,0,0,40.65,14,3.64,3.64,0,0,0,42.58,14.55Z"/><path class="cls-2" d="M59.46,6.15a.7.7,0,0,1-.23.45.79.79,0,0,1-.41.2,1.22,1.22,0,0,1-.5,0,6,6,0,0,0-2.42,0,3.45,3.45,0,0,0-1.67.86,2.23,2.23,0,0,0-.63,1.59v6.11a1.08,1.08,0,0,1-.25.78,1,1,0,0,1-.79.28,1.11,1.11,0,0,1-.78-.26,1.09,1.09,0,0,1-.26-.8V5.94a1,1,0,0,1,.26-.76,1,1,0,0,1,.78-.28,1.06,1.06,0,0,1,.79.26,1.06,1.06,0,0,1,.25.78v.4a4.67,4.67,0,0,1,3.53-1.56,3.47,3.47,0,0,1,1.87.4A.85.85,0,0,1,59.46,6.15Z"/><path class="cls-2" d="M70.86,11.11a.91.91,0,0,0,.26-.67,6.59,6.59,0,0,0-.61-2.91,4.67,4.67,0,0,0-1.79-2,5.26,5.26,0,0,0-2.8-.73A5.65,5.65,0,0,0,63,5.56a5.12,5.12,0,0,0-2,2.05,6.16,6.16,0,0,0-.73,3,6,6,0,0,0,.76,3,5.43,5.43,0,0,0,2.12,2,6.32,6.32,0,0,0,3.1.75,6.66,6.66,0,0,0,2-.37A5.66,5.66,0,0,0,70,15.16a.72.72,0,0,0,.35-.66,1,1,0,0,0-.38-.68.94.94,0,0,0-.65-.23,1.35,1.35,0,0,0-.67.25,4,4,0,0,1-1.1.54,3.75,3.75,0,0,1-1.32.25,4.2,4.2,0,0,1-2.12-.53,3.71,3.71,0,0,1-1.44-1.42,4.09,4.09,0,0,1-.47-1.31h7.95A1,1,0,0,0,70.86,11.11ZM62.25,9.7a3.9,3.9,0,0,1,.34-1.13,3.37,3.37,0,0,1,1.28-1.44,3.88,3.88,0,0,1,2.05-.51,3.12,3.12,0,0,1,1.77.48,3,3,0,0,1,1.13,1.31A4.4,4.4,0,0,1,69.2,9.7Z"/><path class="cls-2" d="M70.71,21.25a1,1,0,0,1-.75-.31,1,1,0,0,1-.3-.76,1.06,1.06,0,0,1,.3-.78,1,1,0,0,1,.75-.29,2.76,2.76,0,0,0,1.46-.37,2.57,2.57,0,0,0,1-1,2.76,2.76,0,0,0,.37-1.44V6a1,1,0,0,1,.3-.78A1.06,1.06,0,0,1,75.67,6V16.31A5,5,0,0,1,75,18.86a4.71,4.71,0,0,1-1.74,1.75A5.14,5.14,0,0,1,70.71,21.25ZM74.6,3a1.33,1.33,0,0,1-1-.4,1.36,1.36,0,0,1-.41-1,1.34,1.34,0,0,1,.41-1,1.34,1.34,0,0,1,1-.41,1.36,1.36,0,0,1,1,.41,1.34,1.34,0,0,1,.41,1,1.36,1.36,0,0,1-.41,1A1.35,1.35,0,0,1,74.6,3Z"/><path class="cls-2" d="M88.82,11.11a.88.88,0,0,0,.27-.67,6.59,6.59,0,0,0-.61-2.91,4.73,4.73,0,0,0-1.79-2,5.33,5.33,0,0,0-2.82-.73,5.73,5.73,0,0,0-2.93.75,5.21,5.21,0,0,0-2,2.05,6.06,6.06,0,0,0-.73,3,5.76,5.76,0,0,0,.76,3,5.3,5.3,0,0,0,2.12,2,6.19,6.19,0,0,0,3.08.75,6.56,6.56,0,0,0,2-.37A5.78,5.78,0,0,0,88,15.16a.75.75,0,0,0,.33-.66,1,1,0,0,0-.36-.68,1,1,0,0,0-.65-.23,1.35,1.35,0,0,0-.68.25,3.82,3.82,0,0,1-1.09.54,3.86,3.86,0,0,1-1.34.25,4.18,4.18,0,0,1-2.11-.53,3.8,3.8,0,0,1-1.45-1.42,3.64,3.64,0,0,1-.45-1.31h7.95A.93.93,0,0,0,88.82,11.11ZM80.21,9.7a3.88,3.88,0,0,1,.33-1.13,3.42,3.42,0,0,1,1.3-1.44,3.76,3.76,0,0,1,2-.51,3,3,0,0,1,2.92,1.79,4.1,4.1,0,0,1,.36,1.29Z"/><path class="cls-2" d="M96,16.43A7.9,7.9,0,0,1,93.27,16a5.22,5.22,0,0,1-1.94-1.14.89.89,0,0,1-.26-.76,1,1,0,0,1,.41-.7,1.08,1.08,0,0,1,.82-.29,1.17,1.17,0,0,1,.71.37,3.25,3.25,0,0,0,1.14.74,4.26,4.26,0,0,0,1.74.35,3.52,3.52,0,0,0,1.86-.4,1.24,1.24,0,0,0,.65-1A1.25,1.25,0,0,0,97.81,12a5.69,5.69,0,0,0-2.25-.76A6.75,6.75,0,0,1,92.49,10,2.66,2.66,0,0,1,91.54,8a2.52,2.52,0,0,1,.63-1.76,3.77,3.77,0,0,1,1.61-1,6.13,6.13,0,0,1,2-.35,6.45,6.45,0,0,1,2.45.44A4.26,4.26,0,0,1,100,6.47a1,1,0,0,1,.27.7.86.86,0,0,1-.36.62,1,1,0,0,1-.79.14,1.5,1.5,0,0,1-.78-.37,2.71,2.71,0,0,0-1.13-.69,4.56,4.56,0,0,0-1.4-.19A3.47,3.47,0,0,0,94.23,7a1,1,0,0,0-.64.92,1.23,1.23,0,0,0,.2.68,1.66,1.66,0,0,0,.78.55,11.27,11.27,0,0,0,1.72.47,9.4,9.4,0,0,1,2.48.79,3.37,3.37,0,0,1,1.31,1.12,2.8,2.8,0,0,1,.4,1.48,3,3,0,0,1-.52,1.74A3.57,3.57,0,0,1,98.46,16,5.84,5.84,0,0,1,96,16.43Z"/><path class="cls-2" d="M109,15.29a1,1,0,0,1-.35.77,1.31,1.31,0,0,1-.89.29h-.38a3.31,3.31,0,0,1-1.87-.54,3.62,3.62,0,0,1-1.33-1.44,4.63,4.63,0,0,1-.48-2.09V7.11h-1a1,1,0,0,1-.71-.24.84.84,0,0,1-.28-.63.88.88,0,0,1,.28-.67.94.94,0,0,1,.71-.26h1v-3a1.09,1.09,0,0,1,.28-.75,1.13,1.13,0,0,1,1.53,0,1.09,1.09,0,0,1,.28.75v3h1.79a1,1,0,0,1,.71.26.87.87,0,0,1,.26.67.82.82,0,0,1-.26.63,1.05,1.05,0,0,1-.71.24h-1.79v5.17a2.21,2.21,0,0,0,.46,1.41,1.4,1.4,0,0,0,1.13.56h.71a.86.86,0,0,1,.65.3A1.17,1.17,0,0,1,109,15.29Z"/><path class="cls-2" d="M119.53,6.15a.76.76,0,0,1-.25.45.8.8,0,0,1-.4.2,1.26,1.26,0,0,1-.51,0,5.93,5.93,0,0,0-2.4,0,3.43,3.43,0,0,0-1.69.86,2.18,2.18,0,0,0-.62,1.59v6.11a1,1,0,0,1-.26.78,1,1,0,0,1-.78.28,1.11,1.11,0,0,1-.78-.26,1.09,1.09,0,0,1-.26-.8V5.94a1,1,0,0,1,.26-.76,1,1,0,0,1,.78-.28,1,1,0,0,1,.78.26,1,1,0,0,1,.26.78v.4a4.57,4.57,0,0,1,3.51-1.56,3.44,3.44,0,0,1,1.88.4A.88.88,0,0,1,119.53,6.15Z"/><path class="cls-1" d="M119.63,16.68a1.45,1.45,0,0,1-1.44-1.44,1.45,1.45,0,0,1,1.44-1.47,1.38,1.38,0,0,1,1,.43,1.43,1.43,0,0,1,.42,1,1.38,1.38,0,0,1-.42,1A1.35,1.35,0,0,1,119.63,16.68Z"/><path class="cls-2" d="M125.07,21.25a1,1,0,0,1-.76-.31,1,1,0,0,1-.31-.76V10.63a6.14,6.14,0,0,1,.78-3,5.61,5.61,0,0,1,2-2.08,5.8,5.8,0,0,1,8,2.08,5.91,5.91,0,0,1,.76,3,6.29,6.29,0,0,1-.7,3,5.47,5.47,0,0,1-1.92,2.07,5,5,0,0,1-2.74.76,5.08,5.08,0,0,1-2.27-.51,5.47,5.47,0,0,1-1.77-1.39v5.65a1.06,1.06,0,0,1-.29.76A1,1,0,0,1,125.07,21.25Zm4.69-6.7a3.53,3.53,0,0,0,1.91-.52,3.73,3.73,0,0,0,1.33-1.4,4.14,4.14,0,0,0,.49-2,4.22,4.22,0,0,0-.49-2,3.81,3.81,0,0,0-1.33-1.4,3.67,3.67,0,0,0-5.13,1.4,4.22,4.22,0,0,0-.48,2,4.14,4.14,0,0,0,.48,2,3.63,3.63,0,0,0,3.22,1.92Z"/><path class="cls-2" d="M141.44,16.35a2.78,2.78,0,0,1-1.63-.5,3.31,3.31,0,0,1-1.11-1.38,4.62,4.62,0,0,1-.4-2V1.05a1.06,1.06,0,0,1,.29-.76,1.06,1.06,0,0,1,.76-.29,1,1,0,0,1,.75.29,1,1,0,0,1,.29.76V12.48a2.44,2.44,0,0,0,.3,1.27.84.84,0,0,0,.75.5H142a.85.85,0,0,1,.68.3,1,1,0,0,1,.27.75.9.9,0,0,1-.4.75,1.68,1.68,0,0,1-1,.3Z"/><path class="cls-2" d="M45.32,8.68H39.9a.49.49,0,0,0-.42.72l2.46,4.42a.72.72,0,0,0,1.26,0l2.53-4.44A.46.46,0,0,0,45.32,8.68Zm-2.63,3a1,1,0,0,1-1-1,1,1,0,1,1,1.93,0A1,1,0,0,1,42.69,11.64Z"/><path class="cls-1" d="M93.31,27.32a.7.7,0,0,1-.49-.2.7.7,0,0,1,0-1,.71.71,0,0,1,1,0,.72.72,0,0,1,0,1A.7.7,0,0,1,93.31,27.32Z"/><path class="cls-1" d="M43,27.32a.7.7,0,0,1-.49-.2.7.7,0,0,1,0-1,.71.71,0,0,1,1,0,.72.72,0,0,1,0,1A.7.7,0,0,1,43,27.32Z"/><path class="cls-2" d="M.17,28.68a.16.16,0,0,1-.12,0,.17.17,0,0,1,0-.12v-3.8a.17.17,0,0,1,.05-.12.16.16,0,0,1,.12,0H1.22a1.53,1.53,0,0,1,.72.16,1.2,1.2,0,0,1,.48.44,1.25,1.25,0,0,1,0,1.29,1.2,1.2,0,0,1-.48.44,1.66,1.66,0,0,1-.72.15H.33v1.48a.16.16,0,0,1,0,.12A.16.16,0,0,1,.17,28.68Zm.16-1.95h.89a1.2,1.2,0,0,0,.55-.12,1.06,1.06,0,0,0,.37-.33.89.89,0,0,0,.13-.47,1,1,0,0,0-.13-.49A1.06,1.06,0,0,0,1.77,25a1.2,1.2,0,0,0-.55-.12H.33Zm2.16,1.95a.25.25,0,0,1-.1,0l-.05-.06-1.1-1.68.34-.08,1,1.6c0,.07.06.13,0,.17S2.57,28.68,2.49,28.68Z"/><path class="cls-2" d="M3.52,28.68a.19.19,0,0,1-.12,0,.16.16,0,0,1,0-.12v-3.8a.16.16,0,0,1,0-.12.19.19,0,0,1,.12,0H6.18a.19.19,0,0,1,.12,0,.17.17,0,0,1,0,.12.18.18,0,0,1,0,.11.19.19,0,0,1-.12,0H3.69v1.59H5.52a.14.14,0,0,1,.16.16.15.15,0,0,1,0,.11.13.13,0,0,1-.12.05H3.69v1.59H6.18a.19.19,0,0,1,.12,0,.18.18,0,0,1,0,.11.17.17,0,0,1,0,.12.19.19,0,0,1-.12,0Z"/><path class="cls-2" d="M8.12,28.74a1.25,1.25,0,0,1-.64-.17A1.33,1.33,0,0,1,7,28.13a1.19,1.19,0,0,1-.17-.61.17.17,0,0,1,0-.12.21.21,0,0,1,.12,0,.25.25,0,0,1,.12,0,.16.16,0,0,1,0,.12A.85.85,0,0,0,7.3,28a1,1,0,0,0,.35.33.94.94,0,0,0,.47.12.85.85,0,0,0,.47-.13A1,1,0,0,0,8.93,28a.9.9,0,0,0,.13-.45v-2.8a.13.13,0,0,1,0-.12.15.15,0,0,1,.11,0,.16.16,0,0,1,.12,0,.17.17,0,0,1,.05.12v2.8a1.17,1.17,0,0,1-.17.61,1.38,1.38,0,0,1-.46.44A1.3,1.3,0,0,1,8.12,28.74Z"/><path class="cls-2" d="M10.66,28.68a.16.16,0,0,1-.12,0,.17.17,0,0,1,0-.12v-3.8a.17.17,0,0,1,0-.12.16.16,0,0,1,.12,0h2.65a.16.16,0,0,1,.12,0,.17.17,0,0,1,.05.12.18.18,0,0,1-.05.11.16.16,0,0,1-.12,0H10.82v1.59h1.83a.16.16,0,0,1,.12,0,.17.17,0,0,1,.05.12.16.16,0,0,1-.05.11.13.13,0,0,1-.12.05H10.82v1.59h2.49a.16.16,0,0,1,.12,0,.18.18,0,0,1,.05.11.17.17,0,0,1-.05.12.16.16,0,0,1-.12,0Z"/><path class="cls-2" d="M15.57,28.74a1.91,1.91,0,0,1-.64-.1,1.58,1.58,0,0,1-.5-.26,1.38,1.38,0,0,1-.33-.4.15.15,0,0,1,0-.13.2.2,0,0,1,.1-.08.17.17,0,0,1,.12,0,.27.27,0,0,1,.1.08.83.83,0,0,0,.26.3,1.18,1.18,0,0,0,.39.19,1.51,1.51,0,0,0,.5.07,1.27,1.27,0,0,0,.54-.1.77.77,0,0,0,.36-.3.89.89,0,0,0,.12-.47.74.74,0,0,0-.26-.59,1.38,1.38,0,0,0-.8-.31,1.83,1.83,0,0,1-1-.38.9.9,0,0,1-.35-.73.89.89,0,0,1,.16-.54,1.07,1.07,0,0,1,.46-.37,1.79,1.79,0,0,1,.68-.13,1.51,1.51,0,0,1,.53.09,1.49,1.49,0,0,1,.43.24,1.54,1.54,0,0,1,.28.3.19.19,0,0,1,0,.13.2.2,0,0,1-.09.09h-.12a.13.13,0,0,1-.1-.07,2,2,0,0,0-.2-.22,1,1,0,0,0-.31-.17,1.38,1.38,0,0,0-1.15.13.65.65,0,0,0-.26.55.63.63,0,0,0,.11.35.79.79,0,0,0,.34.26,2,2,0,0,0,.59.17,1.94,1.94,0,0,1,1,.42,1,1,0,0,1,.31.78,1.26,1.26,0,0,1-.09.49,1.08,1.08,0,0,1-.28.38,1.18,1.18,0,0,1-.43.23A1.59,1.59,0,0,1,15.57,28.74Z"/><path class="cls-2" d="M17.3,24.84a.14.14,0,0,1-.11,0,.15.15,0,0,1,0-.2.14.14,0,0,1,.11,0h3.12a.14.14,0,0,1,.11,0,.14.14,0,0,1,0,.2.14.14,0,0,1-.11,0Zm1.56,3.84a.16.16,0,0,1-.12,0,.17.17,0,0,1,0-.12v-4H19v4a.14.14,0,0,1-.16.16Z"/><path class="cls-2" d="M21.37,28.68a.14.14,0,0,1-.16-.16v-3.8a.14.14,0,0,1,.16-.16h1.05a1.53,1.53,0,0,1,.72.16,1.23,1.23,0,0,1,.49.44,1.31,1.31,0,0,1,0,1.29,1.23,1.23,0,0,1-.49.44,1.66,1.66,0,0,1-.72.15h-.88v1.48a.17.17,0,0,1-.05.12A.16.16,0,0,1,21.37,28.68Zm.17-1.95h.88a1.2,1.2,0,0,0,.55-.12.91.91,0,0,0,.37-.33.81.81,0,0,0,.13-.47.9.9,0,0,0-.13-.49A.91.91,0,0,0,23,25a1.2,1.2,0,0,0-.55-.12h-.88Zm2.15,1.95-.09,0-.06-.06-1.1-1.68.34-.08,1,1.6c.05.07.06.13,0,.17A.18.18,0,0,1,23.69,28.68Z"/><path class="cls-2" d="M24.28,28.68a.15.15,0,0,1-.15-.08.17.17,0,0,1,0-.14l1.68-3.79a.14.14,0,0,1,.16-.11.17.17,0,0,1,.16.11l1.67,3.79a.14.14,0,0,1,0,.15.17.17,0,0,1-.15.07l-.09,0a.28.28,0,0,1-.06-.08l-1.62-3.7h.17l-1.61,3.7a.19.19,0,0,1-.07.08Zm.41-1,.13-.29h2.3l.13.29Z"/><path class="cls-2" d="M30.27,28.74a2.19,2.19,0,0,1-1.52-.63,2.3,2.3,0,0,1-.47-.68,2,2,0,0,1,0-1.62,2.1,2.1,0,0,1,.46-.68,2.19,2.19,0,0,1,1.53-.63,2.19,2.19,0,0,1,.73.12,2.51,2.51,0,0,1,.64.35.14.14,0,0,1,.05.11.16.16,0,0,1-.05.11.13.13,0,0,1-.12,0h0l-.05,0-.05,0a1.22,1.22,0,0,0-.5-.27,2,2,0,0,0-.61-.09,1.69,1.69,0,0,0-.7.15,2,2,0,0,0-.59.39,1.91,1.91,0,0,0-.39.58,1.57,1.57,0,0,0-.15.68,1.62,1.62,0,0,0,.15.69,1.65,1.65,0,0,0,.39.58,1.74,1.74,0,0,0,.58.39,1.91,1.91,0,0,0,.71.14,1.74,1.74,0,0,0,.61-.1,1.77,1.77,0,0,0,.54-.29.11.11,0,0,1,.1,0,.18.18,0,0,1,.11,0,.21.21,0,0,1,0,.11.13.13,0,0,1,0,.06s0,0,0,.05a1.53,1.53,0,0,1-.63.36A2.92,2.92,0,0,1,30.27,28.74Z"/><path class="cls-2" d="M33.54,28.74a1.25,1.25,0,0,1-.64-.17,1.22,1.22,0,0,1-.46-.44,1.1,1.1,0,0,1-.17-.61.16.16,0,0,1,0-.12.2.2,0,0,1,.24,0,.17.17,0,0,1,.05.12.77.77,0,0,0,.13.45.9.9,0,0,0,.34.33.94.94,0,0,0,.47.12.85.85,0,0,0,.47-.13,1,1,0,0,0,.34-.32.81.81,0,0,0,.13-.45v-2.8a.13.13,0,0,1,.05-.12.15.15,0,0,1,.11,0,.16.16,0,0,1,.12,0,.17.17,0,0,1,.05.12v2.8a1.17,1.17,0,0,1-.17.61,1.38,1.38,0,0,1-.46.44A1.3,1.3,0,0,1,33.54,28.74Z"/><path class="cls-2" d="M35.47,28.68a.15.15,0,0,1-.15-.08.12.12,0,0,1,0-.14L37,24.67a.17.17,0,0,1,.32,0L39,28.46a.12.12,0,0,1,0,.15.15.15,0,0,1-.14.07l-.09,0a.17.17,0,0,1-.06-.08l-1.63-3.7h.18l-1.62,3.7a.12.12,0,0,1-.06.08Zm.41-1,.13-.29h2.3l.12.29Z"/><path class="cls-2" d="M47.16,24.83a.18.18,0,0,1-.11,0,.14.14,0,0,1,0-.11.13.13,0,0,1,0-.1.14.14,0,0,1,.11,0h3.12a.14.14,0,0,1,.11,0,.13.13,0,0,1,0,.1.14.14,0,0,1,0,.11.18.18,0,0,1-.11,0Zm1.56,3.84a.17.17,0,0,1-.12-.05.14.14,0,0,1-.05-.11v-4h.33v4a.14.14,0,0,1,0,.11A.17.17,0,0,1,48.72,28.67Z"/><path class="cls-2" d="M56.18,28.75a2,2,0,0,1-.86-.18,1.37,1.37,0,0,1-.58-.51,1.24,1.24,0,0,1-.22-.74V24.7a.17.17,0,0,1,0-.12.2.2,0,0,1,.24,0,.16.16,0,0,1,0,.12v2.62a1,1,0,0,0,.17.58,1.07,1.07,0,0,0,.47.39,1.77,1.77,0,0,0,1.38,0,1.12,1.12,0,0,0,.47-.39,1,1,0,0,0,.17-.58V24.7a.17.17,0,0,1,.05-.12.2.2,0,0,1,.24,0,.16.16,0,0,1,0,.12v2.62a1.31,1.31,0,0,1-.21.74,1.4,1.4,0,0,1-.59.51A2,2,0,0,1,56.18,28.75Z"/><path class="cls-2" d="M59.11,28.67a.17.17,0,0,1-.12-.05.14.14,0,0,1,0-.11V24.7a.14.14,0,0,1,0-.11.17.17,0,0,1,.12-.05.14.14,0,0,1,.15.08l2,3.69H61L63,24.62a.16.16,0,0,1,.15-.08.13.13,0,0,1,.11.05.14.14,0,0,1,0,.11v3.81a.14.14,0,0,1,0,.11.13.13,0,0,1-.11.05.17.17,0,0,1-.12-.05.12.12,0,0,1,0-.11V25.08l.08,0-1.76,3.43a.14.14,0,0,1-.14.07.17.17,0,0,1-.16-.1l-1.78-3.4.11,0v3.43a.14.14,0,0,1-.05.11A.17.17,0,0,1,59.11,28.67Z"/><path class="cls-2" d="M64.08,28.67a.14.14,0,0,1-.14-.08.16.16,0,0,1,0-.15l1.68-3.79a.16.16,0,0,1,.16-.11.18.18,0,0,1,.16.11l1.67,3.79a.14.14,0,0,1,0,.15.16.16,0,0,1-.14.08.17.17,0,0,1-.1,0,.22.22,0,0,1-.06-.07l-1.62-3.71h.17l-1.61,3.71a.16.16,0,0,1-.07.07A.12.12,0,0,1,64.08,28.67Zm.41-1,.13-.28h2.3l.13.28Z"/><path class="cls-2" d="M70.07,28.72a2.19,2.19,0,0,1-1.52-.63,2.25,2.25,0,0,1-.47-.67,2,2,0,0,1,0-1.63,2.21,2.21,0,0,1,.46-.68,2.52,2.52,0,0,1,.69-.46,2.13,2.13,0,0,1,.84-.16,2.48,2.48,0,0,1,.73.11,2.27,2.27,0,0,1,.64.36.12.12,0,0,1,0,.1.18.18,0,0,1,0,.12.17.17,0,0,1-.12.05h0l0,0,0,0a1.42,1.42,0,0,0-.5-.27,2,2,0,0,0-.61-.08,1.68,1.68,0,0,0-.7.14,1.94,1.94,0,0,0-.58.4,1.73,1.73,0,0,0-.4.57,1.57,1.57,0,0,0-.15.68,1.66,1.66,0,0,0,.15.7,1.61,1.61,0,0,0,.39.57,1.8,1.8,0,0,0,1.29.53,2,2,0,0,0,.61-.09,2,2,0,0,0,.54-.29.1.1,0,0,1,.1,0l.11.05a.16.16,0,0,1,0,.12.07.07,0,0,1,0,.05.09.09,0,0,1,0,.06,1.41,1.41,0,0,1-.63.35A2.52,2.52,0,0,1,70.07,28.72Z"/><path class="cls-2" d="M72.23,28.67a.16.16,0,0,1-.11,0,.13.13,0,0,1-.05-.11.11.11,0,0,1,0-.11l3-3.58H72.23a.16.16,0,0,1-.12,0,.12.12,0,0,1,0-.11.14.14,0,0,1,0-.1.21.21,0,0,1,.12,0h3.1a.17.17,0,0,1,.12.05.13.13,0,0,1,0,.1.12.12,0,0,1,0,.1l-3,3.59h2.84a.15.15,0,0,1,.11,0s0,.06,0,.11a.11.11,0,0,1,0,.09.16.16,0,0,1-.11.05Z"/><path class="cls-2" d="M76.46,28.67a.17.17,0,0,1-.12-.05.14.14,0,0,1,0-.11V24.7a.14.14,0,0,1,0-.11.17.17,0,0,1,.12-.05h2.66a.16.16,0,0,1,.11.05.12.12,0,0,1,0,.11.13.13,0,0,1,0,.11.16.16,0,0,1-.11.05H76.63v1.58h1.83a.17.17,0,0,1,.16.16.17.17,0,0,1-.05.12.16.16,0,0,1-.11.05H76.63v1.58h2.49a.16.16,0,0,1,.11,0,.13.13,0,0,1,0,.11.12.12,0,0,1,0,.11.16.16,0,0,1-.11.05Z"/><path class="cls-2" d="M80.25,28.67a.17.17,0,0,1-.12-.05.14.14,0,0,1,0-.11V24.7a.14.14,0,0,1,0-.11.17.17,0,0,1,.12-.05.21.21,0,0,1,.13.05l2.8,3.5V24.7a.14.14,0,0,1,0-.11.17.17,0,0,1,.12-.05.16.16,0,0,1,.11.05.12.12,0,0,1,.05.11v3.81a.12.12,0,0,1-.05.11.16.16,0,0,1-.11.05l-.07,0a.09.09,0,0,1,0,0l-2.82-3.5v3.39a.14.14,0,0,1,0,.11A.17.17,0,0,1,80.25,28.67Z"/><path class="cls-2" d="M84.78,28.67a.17.17,0,0,1-.12-.05.14.14,0,0,1,0-.11V24.7a.14.14,0,0,1,0-.11.17.17,0,0,1,.24,0,.14.14,0,0,1,0,.11v3.81a.14.14,0,0,1,0,.11A.17.17,0,0,1,84.78,28.67Z"/><path class="cls-2" d="M85.77,28.67a.14.14,0,0,1-.14-.08.16.16,0,0,1,0-.15l1.68-3.79a.16.16,0,0,1,.16-.11.18.18,0,0,1,.16.11l1.67,3.79a.14.14,0,0,1,0,.15.16.16,0,0,1-.14.08.17.17,0,0,1-.1,0,.22.22,0,0,1-.06-.07l-1.62-3.71h.17l-1.61,3.71a.16.16,0,0,1-.07.07A.12.12,0,0,1,85.77,28.67Zm.41-1,.13-.28h2.3l.13.28Z"/><path class="cls-2" d="M99,28.75a1.9,1.9,0,0,1-.85-.18,1.4,1.4,0,0,1-.59-.51,1.31,1.31,0,0,1-.21-.74V24.7a.16.16,0,0,1,0-.12.2.2,0,0,1,.24,0,.17.17,0,0,1,0,.12v2.62a1,1,0,0,0,.17.58,1.07,1.07,0,0,0,.47.39,1.51,1.51,0,0,0,.68.14,1.47,1.47,0,0,0,.69-.14,1.07,1.07,0,0,0,.47-.39,1,1,0,0,0,.18-.58V24.7a.16.16,0,0,1,0-.12.2.2,0,0,1,.24,0,.17.17,0,0,1,.05.12v2.62a1.32,1.32,0,0,1-.22.74,1.44,1.44,0,0,1-.58.51A2,2,0,0,1,99,28.75Z"/><path class="cls-2" d="M101.93,28.67a.33.33,0,0,1-.15,0,.14.14,0,0,1-.06-.12V24.7a.17.17,0,0,1,0-.12.21.21,0,0,1,.11,0h1.36a1.16,1.16,0,0,1,.56.13,1.08,1.08,0,0,1,.41.35.93.93,0,0,1,0,1.06,1.07,1.07,0,0,1-.44.34,1.16,1.16,0,0,1,.6.37,1,1,0,0,1,.23.68,1.17,1.17,0,0,1-.16.62,1.14,1.14,0,0,1-.45.42,1.29,1.29,0,0,1-.66.16Zm.12-2.39h1.19a.8.8,0,0,0,.57-.2.69.69,0,0,0,.22-.54.58.58,0,0,0-.22-.5.88.88,0,0,0-.57-.18h-1.19Zm0,2.07h1.27a1.07,1.07,0,0,0,.49-.11.89.89,0,0,0,.33-1.22.9.9,0,0,0-.33-.31,1.07,1.07,0,0,0-.49-.11h-1.27Z"/><path class="cls-2" d="M105.61,28.67a.17.17,0,0,1-.12-.05.14.14,0,0,1,0-.11V24.7a.14.14,0,0,1,0-.11.17.17,0,0,1,.12-.05h2.66a.16.16,0,0,1,.11.05.12.12,0,0,1,.05.11.13.13,0,0,1-.05.11.16.16,0,0,1-.11.05h-2.49v1.58h1.83a.17.17,0,0,1,.16.16.17.17,0,0,1,0,.12.16.16,0,0,1-.11.05h-1.83v1.58h2.49a.16.16,0,0,1,.11,0,.13.13,0,0,1,.05.11.12.12,0,0,1-.05.11.16.16,0,0,1-.11.05Z"/><path class="cls-2" d="M109.09,28.67a.21.21,0,0,1-.11,0,.16.16,0,0,1,0-.11.15.15,0,0,1,0-.11l3-3.58h-2.83a.15.15,0,0,1-.11,0,.13.13,0,0,1,0-.11.16.16,0,0,1,0-.1.21.21,0,0,1,.11,0h3.1a.17.17,0,0,1,.12.05.19.19,0,0,1,0,.1.17.17,0,0,1,0,.1l-3,3.59h2.84a.16.16,0,0,1,.12,0,.13.13,0,0,1,0,.11.14.14,0,0,1,0,.09.17.17,0,0,1-.12.05Z"/><path class="cls-2" d="M113.33,28.67a.17.17,0,0,1-.12-.05.14.14,0,0,1,0-.11V24.7a.17.17,0,0,1,0-.12.21.21,0,0,1,.12,0h1.1a1.53,1.53,0,0,1,.72.17,1.21,1.21,0,0,1,.48.47,1.28,1.28,0,0,1,.18.68,1.31,1.31,0,0,1-.18.69,1.21,1.21,0,0,1-.48.47,1.53,1.53,0,0,1-.72.17h-.94v1.32a.14.14,0,0,1,0,.11A.17.17,0,0,1,113.33,28.67Zm.16-1.8h.94a1.09,1.09,0,0,0,.55-.13.93.93,0,0,0,.36-.35,1,1,0,0,0,.14-.53,1,1,0,0,0-.14-.52A.93.93,0,0,0,115,25a1.09,1.09,0,0,0-.55-.13h-.94Z"/><path class="cls-2" d="M116.67,28.67a.17.17,0,0,1-.12-.05.14.14,0,0,1,0-.11V24.7a.14.14,0,0,1,0-.11.17.17,0,0,1,.12-.05.18.18,0,0,1,.12.05.14.14,0,0,1,0,.11v3.81a.14.14,0,0,1,0,.11A.18.18,0,0,1,116.67,28.67Z"/><path class="cls-2" d="M118.1,28.67a.17.17,0,0,1-.12-.05.14.14,0,0,1,0-.11V24.7a.14.14,0,0,1,0-.11.17.17,0,0,1,.12-.05h2.66a.21.21,0,0,1,.12.05.14.14,0,0,1,.05.11.16.16,0,0,1-.05.11.21.21,0,0,1-.12.05h-2.49v1.58h1.83a.21.21,0,0,1,.12,0,.15.15,0,0,1,0,.11.16.16,0,0,1,0,.12.21.21,0,0,1-.12.05h-1.83v1.58h2.49a.21.21,0,0,1,.12,0,.16.16,0,0,1,.05.11.14.14,0,0,1-.05.11.21.21,0,0,1-.12.05Z"/><path class="cls-2" d="M123.66,28.72a2.12,2.12,0,0,1-.83-.17,2,2,0,0,1-.68-.46,2.08,2.08,0,0,1-.47-.67,1.92,1.92,0,0,1-.18-.82,2.06,2.06,0,0,1,.17-.81,2.21,2.21,0,0,1,.46-.68,2.52,2.52,0,0,1,.69-.46,2.13,2.13,0,0,1,.84-.16,2.48,2.48,0,0,1,.73.11A2.14,2.14,0,0,1,125,25a.12.12,0,0,1,0,.1.18.18,0,0,1,0,.12.17.17,0,0,1-.12.05h0l-.05,0,0,0a1.42,1.42,0,0,0-.5-.27,2,2,0,0,0-.61-.08,1.68,1.68,0,0,0-.7.14,1.94,1.94,0,0,0-.58.4,1.73,1.73,0,0,0-.4.57,1.56,1.56,0,0,0-.14.68,1.65,1.65,0,0,0,.14.7,1.75,1.75,0,0,0,.39.57,1.79,1.79,0,0,0,.59.39,1.65,1.65,0,0,0,.7.14,2,2,0,0,0,.61-.09,2,2,0,0,0,.54-.29.1.1,0,0,1,.1,0L125,28a.16.16,0,0,1,0,.12.07.07,0,0,1,0,.05.09.09,0,0,1,0,.06,1.43,1.43,0,0,1-.62.35A2.64,2.64,0,0,1,123.66,28.72Z"/><path class="cls-2" d="M125.82,28.67a.18.18,0,0,1-.11,0,.16.16,0,0,1,0-.11.14.14,0,0,1,0-.11l3-3.58h-2.83a.16.16,0,0,1-.12,0,.12.12,0,0,1,0-.11.14.14,0,0,1,0-.1.21.21,0,0,1,.12,0h3.1a.17.17,0,0,1,.12.05.19.19,0,0,1,.05.1.17.17,0,0,1,0,.1l-3,3.59h2.84a.19.19,0,0,1,.12,0,.13.13,0,0,1,.05.11.14.14,0,0,1-.05.09.21.21,0,0,1-.12.05Z"/><path class="cls-2" d="M130.05,28.67a.17.17,0,0,1-.12-.05.14.14,0,0,1,0-.11V24.7a.14.14,0,0,1,0-.11.17.17,0,0,1,.12-.05h2.66a.21.21,0,0,1,.12.05.14.14,0,0,1,0,.11.16.16,0,0,1,0,.11.21.21,0,0,1-.12.05h-2.49v1.58h1.83a.16.16,0,0,1,.11,0,.13.13,0,0,1,.05.11.13.13,0,0,1-.05.12.16.16,0,0,1-.11.05h-1.83v1.58h2.49a.21.21,0,0,1,.12,0,.16.16,0,0,1,0,.11.14.14,0,0,1,0,.11.21.21,0,0,1-.12.05Z"/><path class="cls-2" d="M133.84,28.67a.17.17,0,0,1-.12-.05.14.14,0,0,1,0-.11V24.7a.14.14,0,0,1,0-.11.17.17,0,0,1,.12-.05.21.21,0,0,1,.13.05l2.8,3.5V24.7a.14.14,0,0,1,0-.11.17.17,0,0,1,.12-.05.16.16,0,0,1,.11.05.12.12,0,0,1,0,.11v3.81a.12.12,0,0,1,0,.11.16.16,0,0,1-.11.05l-.07,0a.09.09,0,0,1-.05,0L134,25.12v3.39a.14.14,0,0,1,0,.11A.17.17,0,0,1,133.84,28.67Z"/><path class="cls-2" d="M138.37,28.67a.21.21,0,0,1-.12-.05.14.14,0,0,1,0-.11V24.7a.14.14,0,0,1,0-.11.21.21,0,0,1,.12-.05.17.17,0,0,1,.12.05.14.14,0,0,1,0,.11v3.81a.14.14,0,0,1,0,.11A.17.17,0,0,1,138.37,28.67Z"/><path class="cls-2" d="M139.36,28.67a.14.14,0,0,1-.14-.08.16.16,0,0,1,0-.15l1.68-3.79a.16.16,0,0,1,.16-.11.18.18,0,0,1,.16.11l1.68,3.79a.14.14,0,0,1,0,.15.16.16,0,0,1-.14.08.17.17,0,0,1-.1,0,.22.22,0,0,1-.06-.07L141,24.86h.17l-1.61,3.71a.22.22,0,0,1-.06.07A.17.17,0,0,1,139.36,28.67Zm.41-1,.13-.28h2.3l.13.28Z"/><path class="cls-2" d="M51.29,28.78a.17.17,0,0,1-.12-.05.16.16,0,0,1,0-.12V27l-.31.31a.17.17,0,0,1-.12.05.16.16,0,0,1-.11-.05.17.17,0,0,1,0-.24l.54-.53V24.68a.16.16,0,1,1,.32,0v1.57l.61-.61,0,0,.06,0a.17.17,0,0,1,.12.05.21.21,0,0,1,.05.12.16.16,0,0,1-.05.11l-.84.84v1.74H53.7a.17.17,0,0,1,.16.16.17.17,0,0,1,0,.12.16.16,0,0,1-.11.05Z"/></g></g></svg>