<svg xmlns="http://www.w3.org/2000/svg" viewBox="0 0 164.98 29.17"><defs><style>.cls-1{fill:#ed1c24;}.cls-2{fill:#fff;}</style></defs><title>biale logo</title><g id="Warstwa_2" data-name="Warstwa 2"><g id="Warstwa_1-2" data-name="Warstwa 1"><path class="cls-1" d="M107.53,27.51a.82.82,0,1,1,.57-.24A.78.78,0,0,1,107.53,27.51Z"/><path class="cls-1" d="M50.62,27.51a.82.82,0,0,1,0-1.63.76.76,0,0,1,.57.24.81.81,0,0,1,0,1.15A.76.76,0,0,1,50.62,27.51Z"/><path class="cls-2" d="M.19,29.09A.24.24,0,0,1,.05,29a.21.21,0,0,1,0-.13V24.48a.17.17,0,0,1,.05-.13.19.19,0,0,1,.14-.05H1.42a1.84,1.84,0,0,1,.83.18,1.51,1.51,0,0,1,.57.52,1.4,1.4,0,0,1-.57,2,1.72,1.72,0,0,1-.83.19h-1v1.72a.17.17,0,0,1,0,.13A.2.2,0,0,1,.19,29.09Zm.19-2.27h1a1.39,1.39,0,0,0,.63-.14,1.13,1.13,0,0,0,.43-.38,1,1,0,0,0,.16-.55,1,1,0,0,0-.16-.56,1.08,1.08,0,0,0-.43-.39,1.39,1.39,0,0,0-.63-.14h-1Zm2.51,2.27a.18.18,0,0,1-.11,0L2.71,29,1.44,27l.4-.09,1.21,1.86c.05.08.07.15,0,.2A.21.21,0,0,1,2.89,29.09Z"/><path class="cls-2" d="M4.09,29.09A.19.19,0,0,1,4,29a.18.18,0,0,1-.06-.13V24.48A.16.16,0,0,1,4,24.35a.15.15,0,0,1,.13-.05H7.18a.19.19,0,0,1,.14.05.19.19,0,0,1,0,.13.21.21,0,0,1,0,.13.19.19,0,0,1-.14.05H4.29v1.85H6.41a.17.17,0,0,1,.14,0,.19.19,0,0,1,0,.13.24.24,0,0,1,0,.14.22.22,0,0,1-.14.05H4.29v1.84H7.18a.2.2,0,0,1,.14.06.19.19,0,0,1,0,.13.21.21,0,0,1,0,.13.24.24,0,0,1-.14.05Z"/><path class="cls-2" d="M9.43,29.15A1.49,1.49,0,0,1,8.68,29a1.47,1.47,0,0,1-.53-.52,1.32,1.32,0,0,1-.2-.7.22.22,0,0,1,0-.14.23.23,0,0,1,.14,0,.21.21,0,0,1,.14,0,.17.17,0,0,1,.05.14,1,1,0,0,0,.16.53,1.1,1.1,0,0,0,.4.37,1,1,0,0,0,.54.14,1.08,1.08,0,0,0,.94-.52,1,1,0,0,0,.15-.52V24.48a.16.16,0,0,1,.06-.13.17.17,0,0,1,.14-.05.15.15,0,0,1,.13.05.16.16,0,0,1,.06.13v3.26a1.36,1.36,0,0,1-.2.71,1.56,1.56,0,0,1-.54.51A1.43,1.43,0,0,1,9.43,29.15Z"/><path class="cls-2" d="M12.38,29.09a.24.24,0,0,1-.14-.05.21.21,0,0,1-.05-.13V24.48a.19.19,0,0,1,.05-.13.19.19,0,0,1,.14-.05h3.09a.15.15,0,0,1,.13.05.16.16,0,0,1,.06.13.18.18,0,0,1-.06.13.15.15,0,0,1-.13.05h-2.9v1.85H14.7a.19.19,0,0,1,.14,0,.19.19,0,0,1,.05.13.17.17,0,0,1-.19.19H12.57v1.84h2.9a.21.21,0,0,1,.19.19.18.18,0,0,1-.06.13.19.19,0,0,1-.13.05Z"/><path class="cls-2" d="M18.09,29.15a2.21,2.21,0,0,1-.74-.11,1.77,1.77,0,0,1-.58-.3,1.54,1.54,0,0,1-.38-.47.14.14,0,0,1,0-.14.23.23,0,0,1,.12-.1.22.22,0,0,1,.14,0,.18.18,0,0,1,.11.1,1.38,1.38,0,0,0,.3.34,1.37,1.37,0,0,0,.45.23,2.17,2.17,0,0,0,.59.07,1.48,1.48,0,0,0,.63-.11.91.91,0,0,0,.42-.35,1,1,0,0,0,.14-.55.86.86,0,0,0-.31-.68,1.59,1.59,0,0,0-.92-.36,2.21,2.21,0,0,1-1.13-.45,1.06,1.06,0,0,1-.4-.84,1,1,0,0,1,.19-.63,1.19,1.19,0,0,1,.53-.42,2,2,0,0,1,.79-.16,1.75,1.75,0,0,1,.62.11,1.77,1.77,0,0,1,.49.27,1.34,1.34,0,0,1,.33.35.16.16,0,0,1,0,.15.16.16,0,0,1-.1.11.33.33,0,0,1-.14,0,.2.2,0,0,1-.12-.08,1.34,1.34,0,0,0-.23-.25,1.09,1.09,0,0,0-.35-.21A1.54,1.54,0,0,0,18,24.6a1.33,1.33,0,0,0-.82.23.77.77,0,0,0-.31.65.73.73,0,0,0,.13.4,1,1,0,0,0,.39.31,2.73,2.73,0,0,0,.69.19,2.24,2.24,0,0,1,1.19.49,1.22,1.22,0,0,1,.36.9,1.36,1.36,0,0,1-.11.58,1.13,1.13,0,0,1-.32.43,1.51,1.51,0,0,1-.5.28A2.11,2.11,0,0,1,18.09,29.15Z"/><path class="cls-2" d="M20.1,24.63a.17.17,0,0,1-.13-.05.17.17,0,0,1,0-.24.17.17,0,0,1,.13,0h3.63a.16.16,0,0,1,.12,0,.17.17,0,0,1-.12.29Zm1.81,4.46a.24.24,0,0,1-.14-.05.21.21,0,0,1-.05-.13V24.3h.38v4.61a.17.17,0,0,1-.05.13A.22.22,0,0,1,21.91,29.09Z"/><path class="cls-2" d="M24.83,29.09a.22.22,0,0,1-.14-.05.17.17,0,0,1-.05-.13V24.48a.14.14,0,0,1,.05-.13.17.17,0,0,1,.14-.05h1.22a1.89,1.89,0,0,1,.84.18,1.41,1.41,0,0,1,.56.52,1.4,1.4,0,0,1-.56,2,1.76,1.76,0,0,1-.84.19H25v1.72A.21.21,0,0,1,25,29,.2.2,0,0,1,24.83,29.09ZM25,26.82h1a1.44,1.44,0,0,0,.64-.14,1.13,1.13,0,0,0,.43-.38,1,1,0,0,0,.15-.55,1,1,0,0,0-.15-.56,1.08,1.08,0,0,0-.43-.39,1.44,1.44,0,0,0-.64-.14H25Zm2.5,2.27a.15.15,0,0,1-.1,0,.23.23,0,0,1-.07-.07L26.07,27l.4-.09,1.21,1.86c.06.08.07.15,0,.2A.22.22,0,0,1,27.52,29.09Z"/><path class="cls-2" d="M28.21,29.09A.18.18,0,0,1,28,29a.17.17,0,0,1,0-.17L30,24.43a.19.19,0,0,1,.19-.13.18.18,0,0,1,.18.13l1.95,4.4a.14.14,0,0,1,0,.17.2.2,0,0,1-.17.09.2.2,0,0,1-.11,0A.35.35,0,0,1,32,29l-1.89-4.3h.21L28.39,29a.22.22,0,0,1-.07.09A.2.2,0,0,1,28.21,29.09Zm.48-1.2.15-.33h2.67l.15.33Z"/><path class="cls-2" d="M35.17,29.15a2.38,2.38,0,0,1-1-.19,2.66,2.66,0,0,1-1.35-1.32A2.45,2.45,0,0,1,33.39,25a2.72,2.72,0,0,1,.8-.53,2.45,2.45,0,0,1,1-.2,2.55,2.55,0,0,1,.84.14,2.63,2.63,0,0,1,.75.41.13.13,0,0,1,.05.12.19.19,0,0,1-.05.14.2.2,0,0,1-.14.05h0l0,0-.06,0a1.57,1.57,0,0,0-.58-.32,2.71,2.71,0,0,0-.71-.1,2,2,0,0,0-.81.17,2.33,2.33,0,0,0-.68.46,2.17,2.17,0,0,0-.46.67,1.78,1.78,0,0,0-.17.79,1.84,1.84,0,0,0,.17.81,2.19,2.19,0,0,0,.45.67,2.24,2.24,0,0,0,.68.45,2.25,2.25,0,0,0,1.53.05,2,2,0,0,0,.62-.33.13.13,0,0,1,.12,0,.14.14,0,0,1,.12.06.15.15,0,0,1,.06.13s0,0,0,.06,0,0,0,.06A1.63,1.63,0,0,1,36,29,3.41,3.41,0,0,1,35.17,29.15Z"/><path class="cls-2" d="M39,29.15a1.49,1.49,0,0,1-.75-.19,1.47,1.47,0,0,1-.53-.52,1.24,1.24,0,0,1-.2-.7.22.22,0,0,1,0-.14.21.21,0,0,1,.14,0,.23.23,0,0,1,.14,0,.22.22,0,0,1,0,.14,1,1,0,0,0,.15.53,1.18,1.18,0,0,0,.4.37,1.15,1.15,0,0,0,1.1,0,1.18,1.18,0,0,0,.39-.38,1,1,0,0,0,.15-.52V24.48a.16.16,0,0,1,.06-.13.17.17,0,0,1,.13-.05.17.17,0,0,1,.14.05.16.16,0,0,1,.06.13v3.26a1.36,1.36,0,0,1-.2.71,1.65,1.65,0,0,1-.54.51A1.46,1.46,0,0,1,39,29.15Z"/><path class="cls-2" d="M41.21,29.09A.18.18,0,0,1,41,29a.2.2,0,0,1,0-.17L43,24.43a.18.18,0,0,1,.19-.13.19.19,0,0,1,.18.13l1.95,4.4a.15.15,0,0,1,0,.17.2.2,0,0,1-.17.09.2.2,0,0,1-.11,0A.35.35,0,0,1,45,29l-1.89-4.3h.21L41.39,29a.22.22,0,0,1-.07.09A.2.2,0,0,1,41.21,29.09Zm.47-1.2.16-.33h2.67l.14.33Z"/><path class="cls-2" d="M113.91,29.17a2.26,2.26,0,0,1-1-.21,1.7,1.7,0,0,1-.68-.59,1.58,1.58,0,0,1-.25-.86V24.46a.15.15,0,0,1,.06-.13.2.2,0,0,1,.14,0,.22.22,0,0,1,.14,0,.17.17,0,0,1,.05.13v3.05a1.17,1.17,0,0,0,.19.67,1.39,1.39,0,0,0,.55.46,2.08,2.08,0,0,0,1.6,0,1.46,1.46,0,0,0,.55-.46,1.18,1.18,0,0,0,.2-.67V24.46a.14.14,0,0,1,.05-.13.22.22,0,0,1,.14,0,.2.2,0,0,1,.14,0,.17.17,0,0,1,0,.13v3.05a1.5,1.5,0,0,1-.25.86,1.64,1.64,0,0,1-.68.59A2.26,2.26,0,0,1,113.91,29.17Z"/><path class="cls-2" d="M117.37,29.07a.34.34,0,0,1-.18,0,.17.17,0,0,1-.07-.14V24.46a.15.15,0,0,1,.06-.13.2.2,0,0,1,.14,0h1.57a1.38,1.38,0,0,1,.65.15,1.28,1.28,0,0,1,.48.41,1.07,1.07,0,0,1,0,1.22,1.19,1.19,0,0,1-.51.4,1.39,1.39,0,0,1,.7.43,1.17,1.17,0,0,1,.27.79,1.34,1.34,0,0,1-.19.72,1.39,1.39,0,0,1-.52.5,1.71,1.71,0,0,1-.77.17Zm.14-2.77h1.38a.92.92,0,0,0,.66-.23.83.83,0,0,0,.26-.63.72.72,0,0,0-.26-.59,1.06,1.06,0,0,0-.66-.2h-1.38Zm0,2.4H119a1.14,1.14,0,0,0,.57-.13,1,1,0,0,0,.38-.36.93.93,0,0,0,.14-.53.9.9,0,0,0-.14-.52,1,1,0,0,0-.38-.36,1.26,1.26,0,0,0-.57-.13h-1.47Z"/><path class="cls-2" d="M121.64,29.07a.15.15,0,0,1-.13-.05.16.16,0,0,1-.06-.13V24.46a.18.18,0,0,1,.06-.13.19.19,0,0,1,.13,0h3.09a.24.24,0,0,1,.14,0,.19.19,0,0,1,0,.26.2.2,0,0,1-.14.06h-2.89v1.84H124a.22.22,0,0,1,.14.05.17.17,0,0,1,.05.13.17.17,0,0,1-.05.14.22.22,0,0,1-.14.05h-2.12V28.7h2.89a.2.2,0,0,1,.14.06.17.17,0,0,1,0,.13.15.15,0,0,1,0,.13.19.19,0,0,1-.14.05Z"/><path class="cls-2" d="M125.69,29.07a.15.15,0,0,1-.13-.05.14.14,0,0,1-.06-.12.18.18,0,0,1,0-.13L129,24.61h-3.29a.23.23,0,0,1-.14,0,.17.17,0,0,1,0-.13.16.16,0,0,1,0-.11.24.24,0,0,1,.14,0h3.6a.2.2,0,0,1,.14,0,.27.27,0,0,1,.06.12.17.17,0,0,1,0,.12L126,28.74h3.3a.21.21,0,0,1,.14,0,.15.15,0,0,1,.06.13.14.14,0,0,1-.06.11.17.17,0,0,1-.14.05Z"/><path class="cls-2" d="M130.61,29.07a.17.17,0,0,1-.14-.05.15.15,0,0,1-.05-.13V24.46a.14.14,0,0,1,.05-.13.22.22,0,0,1,.14,0h1.28a1.72,1.72,0,0,1,.83.19,1.58,1.58,0,0,1,.57.55,1.48,1.48,0,0,1,.21.79,1.5,1.5,0,0,1-.78,1.35,1.72,1.72,0,0,1-.83.19H130.8v1.54a.19.19,0,0,1-.05.13A.16.16,0,0,1,130.61,29.07ZM130.8,27h1.09a1.28,1.28,0,0,0,.63-.16,1,1,0,0,0,.43-.41,1.13,1.13,0,0,0,.16-.61,1.08,1.08,0,0,0-.16-.6,1.06,1.06,0,0,0-.43-.41,1.28,1.28,0,0,0-.63-.15H130.8Z"/><path class="cls-2" d="M134.49,29.07a.17.17,0,0,1-.14-.05.19.19,0,0,1,0-.13V24.46a.21.21,0,0,1,0-.13.22.22,0,0,1,.28,0,.17.17,0,0,1,.05.13v4.43a.15.15,0,0,1-.05.13A.17.17,0,0,1,134.49,29.07Z"/><path class="cls-2" d="M136.16,29.07A.17.17,0,0,1,136,29a.15.15,0,0,1-.05-.13V24.46a.17.17,0,0,1,.05-.13.22.22,0,0,1,.14,0h3.09a.21.21,0,0,1,.13,0,.19.19,0,0,1-.13.32h-2.9v1.84h2.13a.19.19,0,0,1,.13.05.18.18,0,0,1,.06.13.18.18,0,0,1-.06.14.19.19,0,0,1-.13.05h-2.13V28.7h2.9a.21.21,0,0,1,.19.19.16.16,0,0,1-.06.13.17.17,0,0,1-.13.05Z"/><path class="cls-2" d="M142.62,29.13a2.47,2.47,0,0,1-1-.19,2.67,2.67,0,0,1-.79-.53,2.4,2.4,0,0,1-.55-.79,2.34,2.34,0,0,1-.2-.95,2.41,2.41,0,0,1,.73-1.73,2.6,2.6,0,0,1,.8-.53,2.45,2.45,0,0,1,1-.19,2.55,2.55,0,0,1,.84.13,2.45,2.45,0,0,1,.74.41.14.14,0,0,1,.06.12.19.19,0,0,1,0,.14.17.17,0,0,1-.14.06h0L144,25l-.06,0a1.83,1.83,0,0,0-.58-.32,2.71,2.71,0,0,0-.71-.1,2.08,2.08,0,0,0-.82.17,2.63,2.63,0,0,0-.68.46,2.35,2.35,0,0,0-.46.67,1.92,1.92,0,0,0-.16.79,2,2,0,0,0,.16.81,2.1,2.1,0,0,0,.46.67,2.24,2.24,0,0,0,.68.45,2.08,2.08,0,0,0,.82.17,2.35,2.35,0,0,0,.71-.11,2.21,2.21,0,0,0,.62-.34.12.12,0,0,1,.12,0,.23.23,0,0,1,.12.06.14.14,0,0,1,.05.13v.07a.21.21,0,0,1,0,.06,1.71,1.71,0,0,1-.73.41A3.05,3.05,0,0,1,142.62,29.13Z"/><path class="cls-2" d="M145.13,29.07A.17.17,0,0,1,145,29a.17.17,0,0,1-.05-.12.17.17,0,0,1,0-.13l3.43-4.16h-3.28a.21.21,0,0,1-.14,0,.14.14,0,0,1-.05-.13.13.13,0,0,1,.05-.11.22.22,0,0,1,.14,0h3.6a.17.17,0,0,1,.13,0,.2.2,0,0,1,.06.12.24.24,0,0,1,0,.12l-3.46,4.17h3.3a.2.2,0,0,1,.13,0,.15.15,0,0,1,.06.13.14.14,0,0,1-.06.11.17.17,0,0,1-.13.05Z"/><path class="cls-2" d="M150,29.07a.19.19,0,0,1-.14-.05.19.19,0,0,1-.05-.13V24.46a.21.21,0,0,1,.05-.13.24.24,0,0,1,.14,0h3.09a.19.19,0,0,1,.13,0,.17.17,0,0,1,0,.26.16.16,0,0,1-.13.06h-2.9v1.84h2.13a.24.24,0,0,1,.14.05.21.21,0,0,1,.05.13.22.22,0,0,1-.05.14.24.24,0,0,1-.14.05h-2.13V28.7h2.9a.16.16,0,0,1,.13.06.18.18,0,0,1,.06.13.16.16,0,0,1-.06.13.15.15,0,0,1-.13.05Z"/><path class="cls-2" d="M154.44,29.07a.15.15,0,0,1-.13-.05.16.16,0,0,1-.06-.13V24.46a.18.18,0,0,1,.06-.13.19.19,0,0,1,.13,0,.2.2,0,0,1,.15.06l3.26,4.06V24.46a.21.21,0,0,1,.05-.13.24.24,0,0,1,.14,0,.22.22,0,0,1,.14,0,.18.18,0,0,1,.06.13v4.43a.16.16,0,0,1-.06.13.17.17,0,0,1-.14.05H158l-.06,0L154.64,25v3.94a.19.19,0,0,1-.2.18Z"/><path class="cls-2" d="M159.71,29.07a.17.17,0,0,1-.14-.05.19.19,0,0,1,0-.13V24.46a.21.21,0,0,1,0-.13.22.22,0,0,1,.28,0,.17.17,0,0,1,.05.13v4.43a.15.15,0,0,1-.05.13A.17.17,0,0,1,159.71,29.07Z"/><path class="cls-2" d="M160.86,29.07a.18.18,0,0,1-.17-.09.17.17,0,0,1,0-.17l1.94-4.4a.19.19,0,0,1,.19-.13.19.19,0,0,1,.18.13l1.95,4.4a.14.14,0,0,1,0,.17.2.2,0,0,1-.17.09.2.2,0,0,1-.11,0,.19.19,0,0,1-.07-.08l-1.89-4.31h.21L161,29s0,.07-.07.08A.2.2,0,0,1,160.86,29.07Zm.48-1.2.15-.33h2.67l.14.33Z"/><path class="cls-2" d="M54.17,24.61a.17.17,0,0,1-.13-.05.17.17,0,0,1,0-.12.21.21,0,0,1,0-.12.17.17,0,0,1,.13,0H57.8a.15.15,0,0,1,.17.16.13.13,0,0,1,0,.12.17.17,0,0,1-.12.05ZM56,29.07a.15.15,0,0,1-.13-.05.16.16,0,0,1-.06-.13V24.28h.38v4.61a.15.15,0,0,1-.05.13A.17.17,0,0,1,56,29.07Z"/><path class="cls-2" d="M64.65,29.17a2.26,2.26,0,0,1-1-.21,1.7,1.7,0,0,1-.68-.59,1.57,1.57,0,0,1-.24-.86V24.46a.14.14,0,0,1,.05-.13.22.22,0,0,1,.14,0,.2.2,0,0,1,.14,0,.17.17,0,0,1,0,.13v3.05a1.18,1.18,0,0,0,.2.67,1.36,1.36,0,0,0,.54.46,1.87,1.87,0,0,0,.8.16,1.84,1.84,0,0,0,.8-.16,1.46,1.46,0,0,0,.55-.46,1.18,1.18,0,0,0,.2-.67V24.46a.14.14,0,0,1,0-.13.22.22,0,0,1,.14,0,.2.2,0,0,1,.14,0,.17.17,0,0,1,0,.13v3.05a1.57,1.57,0,0,1-.24.86,1.73,1.73,0,0,1-.69.59A2.26,2.26,0,0,1,64.65,29.17Z"/><path class="cls-2" d="M68.06,29.07a.17.17,0,0,1-.14-.05.15.15,0,0,1,0-.13V24.46a.17.17,0,0,1,0-.13.22.22,0,0,1,.14,0,.18.18,0,0,1,.17.09l2.27,4.29h-.22l2.24-4.29a.18.18,0,0,1,.17-.09.19.19,0,0,1,.13,0,.18.18,0,0,1,.06.13v4.43a.16.16,0,0,1-.06.13.15.15,0,0,1-.13.05.17.17,0,0,1-.14-.05.16.16,0,0,1-.06-.13v-4l.1,0-2,4a.18.18,0,0,1-.17.08.22.22,0,0,1-.18-.11l-2.07-4,.13,0v4a.19.19,0,0,1,0,.13A.19.19,0,0,1,68.06,29.07Z"/><path class="cls-2" d="M73.83,29.07a.18.18,0,0,1-.17-.09.17.17,0,0,1,0-.17l1.94-4.4a.19.19,0,0,1,.19-.13.2.2,0,0,1,.19.13l2,4.4a.15.15,0,0,1,0,.17.2.2,0,0,1-.17.09.15.15,0,0,1-.1,0,.15.15,0,0,1-.08-.08l-1.88-4.31h.2L74,29a.11.11,0,0,1-.07.08A.2.2,0,0,1,73.83,29.07Zm.48-1.2.15-.33h2.67l.15.33Z"/><path class="cls-2" d="M80.79,29.13a2.38,2.38,0,0,1-1-.19,2.56,2.56,0,0,1-1.35-1.32A2.45,2.45,0,0,1,79,24.94a2.72,2.72,0,0,1,.8-.53,2.48,2.48,0,0,1,1-.19,2.55,2.55,0,0,1,.84.13,2.5,2.5,0,0,1,.75.41.14.14,0,0,1,.06.12.2.2,0,0,1-.06.14.17.17,0,0,1-.14.06h0l0,0-.06,0a1.73,1.73,0,0,0-.58-.32,2.71,2.71,0,0,0-.71-.1,2,2,0,0,0-.81.17,2.33,2.33,0,0,0-.68.46,2.17,2.17,0,0,0-.46.67,1.78,1.78,0,0,0-.17.79,1.84,1.84,0,0,0,.17.81,2.08,2.08,0,0,0,.45.67,2.24,2.24,0,0,0,.68.45,2.08,2.08,0,0,0,.82.17,2.35,2.35,0,0,0,.71-.11,2.21,2.21,0,0,0,.62-.34.14.14,0,0,1,.12,0,.31.31,0,0,1,.13.06.17.17,0,0,1,0,.13s0,0,0,.07,0,0,0,.06a1.71,1.71,0,0,1-.73.41A3,3,0,0,1,80.79,29.13Z"/><path class="cls-2" d="M83.3,29.07a.19.19,0,0,1-.19-.17.17.17,0,0,1,0-.13l3.44-4.16H83.3a.21.21,0,0,1-.14,0,.17.17,0,0,1,0-.13.16.16,0,0,1,0-.11.22.22,0,0,1,.14,0h3.6a.2.2,0,0,1,.14,0,.18.18,0,0,1,0,.12.13.13,0,0,1,0,.12L83.6,28.74h3.3a.18.18,0,0,1,.13,0,.15.15,0,0,1,.06.13A.14.14,0,0,1,87,29a.15.15,0,0,1-.13.05Z"/><path class="cls-2" d="M88.21,29.07a.15.15,0,0,1-.13-.05.16.16,0,0,1-.06-.13V24.46a.18.18,0,0,1,.06-.13.19.19,0,0,1,.13,0H91.3a.24.24,0,0,1,.14,0,.17.17,0,0,1,0,.26.2.2,0,0,1-.14.06H88.41v1.84h2.12a.22.22,0,0,1,.14.05.18.18,0,0,1,.06.13.18.18,0,0,1-.06.14.22.22,0,0,1-.14.05H88.41V28.7H91.3a.2.2,0,0,1,.14.06.18.18,0,0,1,.06.13.16.16,0,0,1-.06.13.19.19,0,0,1-.14.05Z"/><path class="cls-2" d="M92.62,29.07a.16.16,0,0,1-.14-.05.15.15,0,0,1,0-.13V24.46a.17.17,0,0,1,0-.13.2.2,0,0,1,.14,0,.2.2,0,0,1,.15.06L96,28.4V24.46a.18.18,0,0,1,.06-.13.2.2,0,0,1,.14,0,.21.21,0,0,1,.13,0,.18.18,0,0,1,.06.13v4.43a.16.16,0,0,1-.06.13.17.17,0,0,1-.13.05h-.08a.15.15,0,0,1-.06,0L92.81,25v3.94a.19.19,0,0,1,0,.13A.19.19,0,0,1,92.62,29.07Z"/><path class="cls-2" d="M97.88,29.07a.15.15,0,0,1-.13-.05.16.16,0,0,1-.06-.13V24.46a.18.18,0,0,1,.06-.13.19.19,0,0,1,.13,0,.2.2,0,0,1,.14,0,.18.18,0,0,1,.06.13v4.43a.19.19,0,0,1-.2.18Z"/><path class="cls-2" d="M99,29.07a.19.19,0,0,1-.17-.09.17.17,0,0,1,0-.17l1.94-4.4a.2.2,0,0,1,.38,0l1.95,4.4a.15.15,0,0,1,0,.17.19.19,0,0,1-.17.09.17.17,0,0,1-.1,0,.15.15,0,0,1-.08-.08l-1.88-4.31h.2L99.21,29a.11.11,0,0,1-.07.08A.18.18,0,0,1,99,29.07Zm.48-1.2.15-.33h2.67l.15.33Z"/><path class="cls-2" d="M59,29.16a.18.18,0,0,1-.14-.06.19.19,0,0,1,0-.13v-1.8l-.35.34a.16.16,0,0,1-.13.06.18.18,0,0,1-.13-.06.16.16,0,0,1-.06-.13.21.21,0,0,1,0-.13l.62-.61V24.48a.21.21,0,0,1,0-.13A.17.17,0,0,1,59,24.3a.15.15,0,0,1,.13.05.17.17,0,0,1,.05.13v1.79l.7-.68.05-.05.08,0a.18.18,0,0,1,.13.06.24.24,0,0,1,0,.14.21.21,0,0,1,0,.13l-1,.95v2h2.56a.18.18,0,0,1,.14.06A.21.21,0,0,1,62,29a.19.19,0,0,1-.05.13.18.18,0,0,1-.14.06Z"/><path class="cls-1" d="M10.76,7.39a5.57,5.57,0,0,0-5-2.85,5.76,5.76,0,0,0-2.95.76A5.92,5.92,0,0,0,.76,7.39a5.8,5.8,0,0,0-.76,3,6.12,6.12,0,0,0,.7,3A5.43,5.43,0,0,0,2.62,15.4a5.13,5.13,0,0,0,2.75.77A5.11,5.11,0,0,0,8.1,15.4a5.4,5.4,0,0,0,1.31-1.17V15a1.11,1.11,0,0,0,.29.78,1.06,1.06,0,0,0,.77.3,1,1,0,0,0,.76-.3,1,1,0,0,0,.31-.78V10.35A5.72,5.72,0,0,0,10.76,7.39ZM9,12.36a3.66,3.66,0,0,1-1.33,1.4,3.5,3.5,0,0,1-1.9.52,3.49,3.49,0,0,1-1.89-.52,3.47,3.47,0,0,1-1.34-1.4,4.08,4.08,0,0,1-.5-2,4.14,4.14,0,0,1,.5-2A3.45,3.45,0,0,1,3.89,6.94a3.48,3.48,0,0,1,1.89-.51,3.49,3.49,0,0,1,1.9.51A3.63,3.63,0,0,1,9,8.33a4.36,4.36,0,0,1,.48,2A4.29,4.29,0,0,1,9,12.36Z"/><path class="cls-1" d="M25.22,5.67V15a1.09,1.09,0,0,1-.28.76,1.08,1.08,0,0,1-.78.31,1,1,0,0,1-.76-.31,1,1,0,0,1-.32-.76v-.22a3.88,3.88,0,0,1-1,.78,5.06,5.06,0,0,1-2.5.61,5.48,5.48,0,0,1-2.6-.61,4.42,4.42,0,0,1-1.79-1.82,5.88,5.88,0,0,1-.66-2.93V5.67a1,1,0,0,1,.3-.76,1,1,0,0,1,.76-.3,1,1,0,0,1,.76.3,1,1,0,0,1,.32.76v5.15a3.83,3.83,0,0,0,.43,1.93,2.75,2.75,0,0,0,1.19,1.15,4.07,4.07,0,0,0,1.7.36,3.51,3.51,0,0,0,1.59-.36,3,3,0,0,0,1.13-1,2.32,2.32,0,0,0,.41-1.36V5.67a.93.93,0,0,1,.32-.76,1,1,0,0,1,.76-.3,1.07,1.07,0,0,1,.78.3A1,1,0,0,1,25.22,5.67Z"/><path class="cls-1" d="M34.77,15a1,1,0,0,1-.34.77,1.37,1.37,0,0,1-.9.29h-.38a3.35,3.35,0,0,1-1.87-.54A3.6,3.6,0,0,1,30,14.1,4.5,4.5,0,0,1,29.48,12V6.84h-1a1,1,0,0,1-.72-.25A.82.82,0,0,1,27.52,6a.87.87,0,0,1,.28-.67A1,1,0,0,1,28.52,5h1V2a1,1,0,0,1,1-1,1,1,0,0,1,.76.3,1.08,1.08,0,0,1,.28.74V5h1.79a1,1,0,0,1,.71.26.86.86,0,0,1,.27.67.81.81,0,0,1-.27.62,1,1,0,0,1-.71.25H31.56V12A2.22,2.22,0,0,0,32,13.42a1.37,1.37,0,0,0,1.12.56h.71a.82.82,0,0,1,.65.3A1.06,1.06,0,0,1,34.77,15Z"/><path class="cls-1" d="M42.58,16.16a6,6,0,0,1-3-.74,5.5,5.5,0,0,1-2-2.05,6.08,6.08,0,0,1-.74-3,6.06,6.06,0,0,1,.74-3,5.43,5.43,0,0,1,2-2,5.91,5.91,0,0,1,3-.75,5.85,5.85,0,0,1,3,.75,5.36,5.36,0,0,1,2,2.05,6,6,0,0,1,.74,3,6.07,6.07,0,0,1-.73,3,5.33,5.33,0,0,1-2,2.05A6,6,0,0,1,42.58,16.16Zm0-1.88a3.63,3.63,0,0,0,1.92-.51,3.42,3.42,0,0,0,1.31-1.38,4.25,4.25,0,0,0,.47-2,4.32,4.32,0,0,0-.47-2A3.44,3.44,0,0,0,44.5,6.93a4,4,0,0,0-3.85,0,3.54,3.54,0,0,0-1.32,1.39,4.21,4.21,0,0,0-.48,2,4.14,4.14,0,0,0,.48,2,3.51,3.51,0,0,0,1.32,1.38A3.64,3.64,0,0,0,42.58,14.28Z"/><path class="cls-2" d="M59.46,5.88a.7.7,0,0,1-.23.45.79.79,0,0,1-.41.2,1.43,1.43,0,0,1-.5,0,6,6,0,0,0-2.42,0,3.45,3.45,0,0,0-1.67.86,2.21,2.21,0,0,0-.63,1.59V15a.93.93,0,0,1-1,1.06,1.16,1.16,0,0,1-.78-.26,1.09,1.09,0,0,1-.26-.8V5.67a1,1,0,0,1,.26-.76,1,1,0,0,1,.78-.29,1.07,1.07,0,0,1,.79.27,1,1,0,0,1,.25.78v.39a4.67,4.67,0,0,1,1.23-1,4.5,4.5,0,0,1,2.3-.58,3.47,3.47,0,0,1,1.87.4A.85.85,0,0,1,59.46,5.88Z"/><path class="cls-2" d="M70.86,10.83a.87.87,0,0,0,.26-.66,6.59,6.59,0,0,0-.61-2.91,4.67,4.67,0,0,0-1.79-2,5.26,5.26,0,0,0-2.8-.73A5.65,5.65,0,0,0,63,5.29a5.12,5.12,0,0,0-2,2.05,6.15,6.15,0,0,0-.73,3,6,6,0,0,0,.76,3,5.5,5.5,0,0,0,2.12,2.05,6.32,6.32,0,0,0,3.1.75,6.66,6.66,0,0,0,2-.37A5.66,5.66,0,0,0,70,14.89a.72.72,0,0,0,.35-.66,1,1,0,0,0-.38-.68.9.9,0,0,0-.65-.23,1.26,1.26,0,0,0-.67.25,4,4,0,0,1-1.1.54,3.75,3.75,0,0,1-1.32.25,4.2,4.2,0,0,1-2.12-.53,3.71,3.71,0,0,1-1.44-1.42,4.09,4.09,0,0,1-.47-1.31h7.95A.92.92,0,0,0,70.86,10.83Zm-8.61-1.4a3.9,3.9,0,0,1,.34-1.13,3.37,3.37,0,0,1,1.28-1.44,3.88,3.88,0,0,1,2.05-.51,3.12,3.12,0,0,1,1.77.48,3,3,0,0,1,1.13,1.3,4.56,4.56,0,0,1,.38,1.3Z"/><path class="cls-2" d="M70.71,21a1,1,0,0,1-.75-.3,1,1,0,0,1-.3-.76,1.06,1.06,0,0,1,.3-.78,1,1,0,0,1,.75-.29,2.76,2.76,0,0,0,1.46-.37,2.57,2.57,0,0,0,1-1A2.77,2.77,0,0,0,73.54,16V5.69a1.1,1.1,0,0,1,1.84-.77,1.06,1.06,0,0,1,.29.77V16A5,5,0,0,1,75,18.59a4.71,4.71,0,0,1-1.74,1.75A5.14,5.14,0,0,1,70.71,21ZM74.6,2.76a1.33,1.33,0,0,1-1-.4,1.36,1.36,0,0,1-.41-1,1.34,1.34,0,0,1,.41-1,1.34,1.34,0,0,1,1-.41,1.36,1.36,0,0,1,1,.41,1.34,1.34,0,0,1,.41,1,1.36,1.36,0,0,1-.41,1A1.35,1.35,0,0,1,74.6,2.76Z"/><path class="cls-2" d="M88.82,10.83a.85.85,0,0,0,.27-.66,6.59,6.59,0,0,0-.61-2.91,4.73,4.73,0,0,0-1.79-2,5.33,5.33,0,0,0-2.82-.73,5.73,5.73,0,0,0-2.93.75,5.21,5.21,0,0,0-2,2.05,6,6,0,0,0-.73,3,5.77,5.77,0,0,0,.76,3,5.36,5.36,0,0,0,2.12,2.05,6.19,6.19,0,0,0,3.08.75,6.56,6.56,0,0,0,2-.37A5.78,5.78,0,0,0,88,14.89a.75.75,0,0,0,.33-.66,1,1,0,0,0-.36-.68.91.91,0,0,0-.65-.23,1.26,1.26,0,0,0-.68.25,3.82,3.82,0,0,1-1.09.54,3.86,3.86,0,0,1-1.34.25,4.18,4.18,0,0,1-2.11-.53,3.8,3.8,0,0,1-1.45-1.42,3.64,3.64,0,0,1-.45-1.31h7.95A.9.9,0,0,0,88.82,10.83Zm-8.61-1.4a3.88,3.88,0,0,1,.33-1.13,3.42,3.42,0,0,1,1.3-1.44,3.76,3.76,0,0,1,2-.51,3.06,3.06,0,0,1,2.92,1.78,4.24,4.24,0,0,1,.36,1.3Z"/><path class="cls-2" d="M96,16.16a7.9,7.9,0,0,1-2.71-.45,5.22,5.22,0,0,1-1.94-1.14.89.89,0,0,1-.26-.76,1,1,0,0,1,.41-.71,1.11,1.11,0,0,1,.82-.28,1.17,1.17,0,0,1,.71.37,3.25,3.25,0,0,0,1.14.74,4.26,4.26,0,0,0,1.74.35,3.62,3.62,0,0,0,1.86-.4,1.24,1.24,0,0,0,.65-1,1.27,1.27,0,0,0-.59-1.09A5.89,5.89,0,0,0,95.56,11a6.75,6.75,0,0,1-3.07-1.25,2.66,2.66,0,0,1-.95-2.06,2.52,2.52,0,0,1,.63-1.76,3.77,3.77,0,0,1,1.61-1.05,6.13,6.13,0,0,1,2-.35A6.45,6.45,0,0,1,98.28,5,4.26,4.26,0,0,1,100,6.2a1,1,0,0,1,.27.7.82.82,0,0,1-.36.61,1,1,0,0,1-.79.15,1.5,1.5,0,0,1-.78-.37,2.84,2.84,0,0,0-1.13-.7,4.91,4.91,0,0,0-1.4-.18,3.47,3.47,0,0,0-1.56.31,1,1,0,0,0-.64.92,1.23,1.23,0,0,0,.2.68,1.73,1.73,0,0,0,.78.55,11.27,11.27,0,0,0,1.72.47,9.4,9.4,0,0,1,2.48.79,3.37,3.37,0,0,1,1.31,1.12,2.8,2.8,0,0,1,.4,1.48,3,3,0,0,1-.52,1.74,3.57,3.57,0,0,1-1.5,1.23A5.84,5.84,0,0,1,96,16.16Z"/><path class="cls-2" d="M109,15a1,1,0,0,1-.35.77,1.36,1.36,0,0,1-.89.29h-.38a3.31,3.31,0,0,1-1.87-.54,3.62,3.62,0,0,1-1.33-1.44,4.63,4.63,0,0,1-.48-2.09V6.84h-1a1,1,0,0,1-.71-.25.82.82,0,0,1-.28-.62A.87.87,0,0,1,102,5.3.94.94,0,0,1,102.7,5h1V2a1.08,1.08,0,0,1,.28-.74,1.13,1.13,0,0,1,1.53,0,1.08,1.08,0,0,1,.28.74V5h1.79a1,1,0,0,1,.71.26.85.85,0,0,1,.26.67.8.8,0,0,1-.26.62,1,1,0,0,1-.71.25h-1.79V12a2.21,2.21,0,0,0,.46,1.41,1.4,1.4,0,0,0,1.13.56h.71a.86.86,0,0,1,.65.3A1.17,1.17,0,0,1,109,15Z"/><path class="cls-2" d="M119.53,5.88a.76.76,0,0,1-.25.45.8.8,0,0,1-.4.2,1.47,1.47,0,0,1-.51,0,5.93,5.93,0,0,0-2.4,0,3.43,3.43,0,0,0-1.69.86,2.16,2.16,0,0,0-.62,1.59V15a.94.94,0,0,1-1,1.06,1.16,1.16,0,0,1-.78-.26,1.09,1.09,0,0,1-.26-.8V5.67a1,1,0,0,1,.26-.76,1,1,0,0,1,.78-.29,1,1,0,0,1,.78.27,1,1,0,0,1,.26.78v.39a4.74,4.74,0,0,1,1.21-1,4.57,4.57,0,0,1,2.3-.58,3.44,3.44,0,0,1,1.88.4A.88.88,0,0,1,119.53,5.88Z"/><path class="cls-1" d="M119.63,16.41A1.45,1.45,0,0,1,118.19,15a1.45,1.45,0,0,1,1.44-1.47,1.38,1.38,0,0,1,1,.43,1.43,1.43,0,0,1,.42,1,1.38,1.38,0,0,1-.42,1A1.35,1.35,0,0,1,119.63,16.41Z"/><path class="cls-2" d="M45.32,8.41H39.9a.49.49,0,0,0-.42.72l2.46,4.42a.72.72,0,0,0,1.26,0l2.53-4.44A.46.46,0,0,0,45.32,8.41Zm-2.63,3a1,1,0,0,1-1-1,1,1,0,1,1,1.93,0A1,1,0,0,1,42.69,11.37Z"/><path class="cls-2" d="M128.58,16.17a5.8,5.8,0,0,1-3-.77,5.5,5.5,0,0,1-2-2.07,5.84,5.84,0,0,1-.75-3,6.22,6.22,0,0,1,.73-3,5.27,5.27,0,0,1,2-2.06,5.65,5.65,0,0,1,2.93-.75,5.26,5.26,0,0,1,2.26.48,5.34,5.34,0,0,1,1.84,1.41.73.73,0,0,1,.21.69,1.06,1.06,0,0,1-.46.63.78.78,0,0,1-.65.13,1.25,1.25,0,0,1-.65-.36,3.34,3.34,0,0,0-2.55-1.09,3.6,3.6,0,0,0-1.89.49,3.43,3.43,0,0,0-1.27,1.37,4.4,4.4,0,0,0-.47,2.08,4.15,4.15,0,0,0,.48,2,3.62,3.62,0,0,0,1.3,1.39,3.68,3.68,0,0,0,2,.51,4.19,4.19,0,0,0,1.29-.18,3,3,0,0,0,1-.55,1.25,1.25,0,0,1,.69-.3.82.82,0,0,1,.63.19,1,1,0,0,1,.39.66.75.75,0,0,1-.25.66A5.29,5.29,0,0,1,128.58,16.17Z"/><path class="cls-2" d="M140.54,16.17a5.85,5.85,0,0,1-3-.75,5.38,5.38,0,0,1-2.05-2.05,6,6,0,0,1-.74-3,6.07,6.07,0,0,1,.74-3,5.38,5.38,0,0,1,2.05-2,6.3,6.3,0,0,1,6,0,5.38,5.38,0,0,1,2.05,2.05,6.07,6.07,0,0,1,.74,3,6,6,0,0,1-.73,3,5.29,5.29,0,0,1-2,2.05A5.85,5.85,0,0,1,140.54,16.17Zm0-1.89a3.72,3.72,0,0,0,1.93-.5,3.62,3.62,0,0,0,1.31-1.38,4.31,4.31,0,0,0,.47-2,4.39,4.39,0,0,0-.47-2,3.58,3.58,0,0,0-1.31-1.39,3.7,3.7,0,0,0-5.18,1.39,4.28,4.28,0,0,0-.48,2,4.2,4.2,0,0,0,.48,2,3.8,3.8,0,0,0,1.32,1.38A3.72,3.72,0,0,0,140.54,14.28Z"/><path class="cls-2" d="M149.92,16.1A1,1,0,0,1,148.85,15V5.72a1.06,1.06,0,0,1,.31-.78,1.07,1.07,0,0,1,.76-.29,1.09,1.09,0,0,1,.78.29,1.09,1.09,0,0,1,.29.78V15a1.07,1.07,0,0,1-.29.76A1.06,1.06,0,0,1,149.92,16.1Zm7,0a1.06,1.06,0,0,1-.77-.3,1,1,0,0,1-.3-.76v-6a2.65,2.65,0,0,0-.65-2,2.3,2.3,0,0,0-1.7-.64,2.39,2.39,0,0,0-1.8.75A2.74,2.74,0,0,0,151,9.13h-1.32a5,5,0,0,1,.55-2.4,4,4,0,0,1,1.5-1.62A4.45,4.45,0,0,1,156,5.05a3.56,3.56,0,0,1,1.43,1.54A5.39,5.39,0,0,1,158,9.05v6a1,1,0,0,1-.3.76A1,1,0,0,1,156.92,16.1Zm7,0a1,1,0,0,1-.76-.3,1,1,0,0,1-.31-.76v-6a2.61,2.61,0,0,0-.65-2,2.28,2.28,0,0,0-1.69-.64,2.34,2.34,0,0,0-1.79.75,2.73,2.73,0,0,0-.7,1.93h-1.74a4.79,4.79,0,0,1,.58-2.4,4.15,4.15,0,0,1,1.65-1.62,4.9,4.9,0,0,1,2.42-.59,4.18,4.18,0,0,1,2.11.53,3.58,3.58,0,0,1,1.44,1.54A5.39,5.39,0,0,1,165,9.05v6a1.07,1.07,0,0,1-.29.76A1.06,1.06,0,0,1,163.89,16.1Z"/></g></g></svg>