<svg xmlns="http://www.w3.org/2000/svg" width="133.856" height="104.11" viewBox="0 0 133.856 104.11">
  <path id="address-card-regular" d="M122.7,32H11.155A11.158,11.158,0,0,0,0,43.155v81.8A11.158,11.158,0,0,0,11.155,136.11H122.7a11.158,11.158,0,0,0,11.155-11.155v-81.8A11.158,11.158,0,0,0,122.7,32Zm0,92.956H11.155v-81.8H122.7Zm-74.365-40.9A14.873,14.873,0,1,0,33.464,69.182,14.887,14.887,0,0,0,48.337,84.055ZM27.515,113.8H69.159c2.882,0,5.206-2,5.206-4.462v-4.462c0-7.39-6.995-13.386-15.617-13.386-2.51,0-4.346,1.859-10.411,1.859-6.251,0-7.762-1.859-10.411-1.859-8.622,0-15.617,6-15.617,13.386v4.462C22.309,111.8,24.633,113.8,27.515,113.8ZM83.66,98.928h26.028a1.865,1.865,0,0,0,1.859-1.859V93.351a1.865,1.865,0,0,0-1.859-1.859H83.66A1.865,1.865,0,0,0,81.8,93.351v3.718A1.865,1.865,0,0,0,83.66,98.928Zm0-14.873h26.028a1.865,1.865,0,0,0,1.859-1.859V78.478a1.865,1.865,0,0,0-1.859-1.859H83.66A1.865,1.865,0,0,0,81.8,78.478V82.2A1.865,1.865,0,0,0,83.66,84.055Zm0-14.873h26.028a1.865,1.865,0,0,0,1.859-1.859V63.6a1.865,1.865,0,0,0-1.859-1.859H83.66A1.865,1.865,0,0,0,81.8,63.6v3.718A1.865,1.865,0,0,0,83.66,69.182Z" transform="translate(0 -32)" fill="#ce1b28"/>
</svg>
