<svg xmlns="http://www.w3.org/2000/svg" width="138.814" height="104.11" viewBox="0 0 138.814 104.11">
  <path id="chart-line-solid" d="M134.476,150.759H17.352V68.338A4.337,4.337,0,0,0,13.014,64H4.338A4.337,4.337,0,0,0,0,68.338v91.1a8.677,8.677,0,0,0,8.676,8.676h125.8a4.337,4.337,0,0,0,4.338-4.338V155.1A4.337,4.337,0,0,0,134.476,150.759ZM125.8,72.676H93.791a6.507,6.507,0,0,0-4.6,11.108l8.784,8.784L78.083,112.463,58.191,92.571a8.673,8.673,0,0,0-12.268,0L27.3,111.194a4.338,4.338,0,0,0,0,6.135l6.133,6.133a4.338,4.338,0,0,0,6.135,0l12.488-12.491,19.892,19.892a8.673,8.673,0,0,0,12.268,0l26.028-26.028,8.784,8.784a6.507,6.507,0,0,0,11.108-4.6V77.014A4.333,4.333,0,0,0,125.8,72.676Z" transform="translate(0 -64)" fill="#ce1b28"/>
</svg>
