<svg xmlns="http://www.w3.org/2000/svg" width="104.11" height="104.11" viewBox="0 0 104.11 104.11">
  <path id="landmark-solid" d="M102,18.73,54.341.415a6.5,6.5,0,0,0-4.569,0L2.111,18.73A3.254,3.254,0,0,0,0,21.776v7.505a3.253,3.253,0,0,0,3.253,3.253h97.6a3.253,3.253,0,0,0,3.253-3.253V21.776A3.254,3.254,0,0,0,102,18.73ZM13.014,39.041V71.576H9.76a3.253,3.253,0,0,0-3.253,3.253v9.76H97.6v-9.76a3.253,3.253,0,0,0-3.253-3.253H91.1V39.041H78.083V71.576H58.562V39.041H45.548V71.576H26.028V39.041ZM100.857,91.1H3.253A3.253,3.253,0,0,0,0,94.35v6.507a3.253,3.253,0,0,0,3.253,3.253h97.6a3.253,3.253,0,0,0,3.253-3.253V94.35A3.253,3.253,0,0,0,100.857,91.1Z" fill="#ce1b28"/>
</svg>
