<svg xmlns="http://www.w3.org/2000/svg" width="123.417" height="104.14" viewBox="0 0 123.417 104.14">
  <path id="tasks-solid" d="M33.653,32.821a2.893,2.893,0,0,0-4.1,0L14.205,48.082,8.734,42.75a2.893,2.893,0,0,0-4.1,0L.851,46.539a2.893,2.893,0,0,0,0,4.1L12.323,62.063a3.081,3.081,0,0,0,4.245,0L20.326,58.3l17.4-17.4a2.914,2.914,0,0,0,.022-4.1Zm0,38.372a2.893,2.893,0,0,0-4.1,0l-15.35,15.36L8.734,81.226a2.893,2.893,0,0,0-4.1,0L.851,85.008a2.893,2.893,0,0,0,0,4.1l11.443,11.45a3.078,3.078,0,0,0,4.242,0l3.784-3.782,17.4-17.408a2.893,2.893,0,0,0,.022-4.074ZM15.427,112.97a11.571,11.571,0,1,0,0,23.141,11.57,11.57,0,0,0,0-23.141Zm104.133,3.857H50.138a3.857,3.857,0,0,0-3.857,3.857V128.4a3.857,3.857,0,0,0,3.857,3.857H119.56a3.857,3.857,0,0,0,3.857-3.857v-7.714A3.857,3.857,0,0,0,119.56,116.827Zm0-77.135H50.138a3.857,3.857,0,0,0-3.857,3.857v7.714a3.857,3.857,0,0,0,3.857,3.857H119.56a3.857,3.857,0,0,0,3.857-3.857V43.548A3.857,3.857,0,0,0,119.56,39.691Zm0,38.568H50.138a3.857,3.857,0,0,0-3.857,3.857v7.714a3.857,3.857,0,0,0,3.857,3.857H119.56a3.857,3.857,0,0,0,3.857-3.857V82.116A3.857,3.857,0,0,0,119.56,78.259Z" transform="translate(-0.001 -31.97)" fill="#ce1b28"/>
</svg>
